<svg xmlns="http://www.w3.org/2000/svg" version="1.1" xmlns:xlink="http://www.w3.org/1999/xlink" xmlns:svgjs="http://svgjs.com/svgjs" width="1440" height="560" preserveAspectRatio="none" viewBox="0 0 1440 560"><g mask="url(&quot;#SvgjsMask1003&quot;)" fill="none"><path d="M68 455L67 292" stroke-width="8" stroke="url(#SvgjsLinearGradient1004)" stroke-linecap="round" class="Down"></path><path d="M657 273L656 125" stroke-width="8" stroke="url(#SvgjsLinearGradient1004)" stroke-linecap="round" class="Down"></path><path d="M460 256L459 621" stroke-width="6" stroke="url(#SvgjsLinearGradient1005)" stroke-linecap="round" class="Up"></path><path d="M1064 549L1063 698" stroke-width="6" stroke="url(#SvgjsLinearGradient1005)" stroke-linecap="round" class="Up"></path><path d="M241 414L240 730" stroke-width="6" stroke="url(#SvgjsLinearGradient1004)" stroke-linecap="round" class="Down"></path><path d="M482 409L481 163" stroke-width="6" stroke="url(#SvgjsLinearGradient1005)" stroke-linecap="round" class="Up"></path><path d="M235 180L234 348" stroke-width="8" stroke="url(#SvgjsLinearGradient1005)" stroke-linecap="round" class="Up"></path><path d="M636 501L635 880" stroke-width="6" stroke="url(#SvgjsLinearGradient1005)" stroke-linecap="round" class="Up"></path><path d="M572 18L571 -388" stroke-width="8" stroke="url(#SvgjsLinearGradient1005)" stroke-linecap="round" class="Up"></path><path d="M1362 78L1361 -120" stroke-width="8" stroke="url(#SvgjsLinearGradient1004)" stroke-linecap="round" class="Down"></path><path d="M1131 297L1130 695" stroke-width="10" stroke="url(#SvgjsLinearGradient1005)" stroke-linecap="round" class="Up"></path><path d="M176 163L175 -11" stroke-width="6" stroke="url(#SvgjsLinearGradient1004)" stroke-linecap="round" class="Down"></path><path d="M345 120L344 -118" stroke-width="6" stroke="url(#SvgjsLinearGradient1005)" stroke-linecap="round" class="Up"></path><path d="M1001 365L1000 519" stroke-width="10" stroke="url(#SvgjsLinearGradient1004)" stroke-linecap="round" class="Down"></path><path d="M1051 242L1050 637" stroke-width="6" stroke="url(#SvgjsLinearGradient1004)" stroke-linecap="round" class="Down"></path><path d="M558 340L557 90" stroke-width="10" stroke="url(#SvgjsLinearGradient1004)" stroke-linecap="round" class="Down"></path><path d="M511 525L510 182" stroke-width="8" stroke="url(#SvgjsLinearGradient1005)" stroke-linecap="round" class="Up"></path><path d="M1203 20L1202 335" stroke-width="8" stroke="url(#SvgjsLinearGradient1004)" stroke-linecap="round" class="Down"></path><path d="M1093 202L1092 565" stroke-width="6" stroke="url(#SvgjsLinearGradient1005)" stroke-linecap="round" class="Up"></path><path d="M81 239L80 10" stroke-width="10" stroke="url(#SvgjsLinearGradient1004)" stroke-linecap="round" class="Down"></path><path d="M230 362L229 621" stroke-width="8" stroke="url(#SvgjsLinearGradient1005)" stroke-linecap="round" class="Up"></path><path d="M1057 155L1056 478" stroke-width="10" stroke="url(#SvgjsLinearGradient1004)" stroke-linecap="round" class="Down"></path><path d="M1026 471L1025 652" stroke-width="6" stroke="url(#SvgjsLinearGradient1005)" stroke-linecap="round" class="Up"></path><path d="M1109 194L1108 426" stroke-width="10" stroke="url(#SvgjsLinearGradient1005)" stroke-linecap="round" class="Up"></path><path d="M203 527L202 904" stroke-width="6" stroke="url(#SvgjsLinearGradient1005)" stroke-linecap="round" class="Up"></path><path d="M206 238L205 418" stroke-width="8" stroke="url(#SvgjsLinearGradient1004)" stroke-linecap="round" class="Down"></path><path d="M1291 188L1290 591" stroke-width="8" stroke="url(#SvgjsLinearGradient1004)" stroke-linecap="round" class="Down"></path><path d="M1212 384L1211 776" stroke-width="6" stroke="url(#SvgjsLinearGradient1005)" stroke-linecap="round" class="Up"></path><path d="M1087 363L1086 668" stroke-width="8" stroke="url(#SvgjsLinearGradient1004)" stroke-linecap="round" class="Down"></path><path d="M651 431L650 239" stroke-width="10" stroke="url(#SvgjsLinearGradient1004)" stroke-linecap="round" class="Down"></path><path d="M1249 211L1248 -13" stroke-width="10" stroke="url(#SvgjsLinearGradient1004)" stroke-linecap="round" class="Down"></path><path d="M1214 255L1213 54" stroke-width="8" stroke="url(#SvgjsLinearGradient1004)" stroke-linecap="round" class="Down"></path><path d="M498 253L497 34" stroke-width="10" stroke="url(#SvgjsLinearGradient1004)" stroke-linecap="round" class="Down"></path><path d="M847 299L846 115" stroke-width="6" stroke="url(#SvgjsLinearGradient1005)" stroke-linecap="round" class="Up"></path><path d="M293 376L292 29" stroke-width="10" stroke="url(#SvgjsLinearGradient1005)" stroke-linecap="round" class="Up"></path><path d="M84 276L83 518" stroke-width="6" stroke="url(#SvgjsLinearGradient1005)" stroke-linecap="round" class="Up"></path></g><defs><mask id="SvgjsMask1003"><rect width="1440" height="560" fill="#ffffff"></rect></mask><linearGradient x1="0%" y1="0%" x2="0%" y2="100%" id="SvgjsLinearGradient1004"><stop stop-color="rgba(28, 83, 142, 0)" offset="0"></stop><stop stop-color="rgba(28, 83, 142, 0.17)" offset="1"></stop></linearGradient><linearGradient x1="0%" y1="100%" x2="0%" y2="0%" id="SvgjsLinearGradient1005"><stop stop-color="rgba(28, 83, 142, 0)" offset="0"></stop><stop stop-color="rgba(28, 83, 142, 0.17)" offset="1"></stop></linearGradient></defs></svg>