<?xml version="1.0" standalone="no"?>
<!DOCTYPE svg PUBLIC "-//W3C//DTD SVG 20010904//EN"
 "http://www.w3.org/TR/2001/REC-SVG-20010904/DTD/svg10.dtd">
<svg version="1.0" xmlns="http://www.w3.org/2000/svg"
 width="512.000000pt" height="512.000000pt" viewBox="0 0 512.000000 512.000000"
 preserveAspectRatio="xMidYMid meet">
<metadata>
Created by potrace 1.14, written by Peter Selinger 2001-2017
</metadata>
<g transform="translate(0.000000,512.000000) scale(0.100000,-0.100000)"
fill="#000000" stroke="none">
<path d="M396 4779 c2 -3 -9 -15 -24 -26 -22 -16 -29 -30 -30 -64 -4 -65 -6
-75 -22 -95 -14 -18 -14 -18 3 -5 17 13 18 12 14 -15 -3 -16 -10 -28 -16 -26
-6 1 -11 -3 -11 -9 0 -6 6 -9 14 -6 11 4 14 -6 14 -46 -1 -29 -6 -58 -12 -66
-8 -11 -8 -13 1 -8 8 5 11 -8 10 -50 -2 -40 -6 -57 -15 -55 -6 1 -12 -3 -12
-9 0 -6 6 -9 14 -6 11 4 14 -6 14 -46 -1 -29 -6 -58 -12 -66 -8 -12 -8 -13 2
-7 17 10 16 -411 -2 -433 -8 -11 -8 -13 1 -8 8 5 11 -9 10 -50 -2 -42 -6 -57
-15 -55 -8 1 -11 -2 -7 -8 3 -6 10 -8 15 -5 12 8 9 -178 -4 -194 -8 -11 -8
-13 0 -8 20 12 15 -101 -5 -114 -14 -9 -14 -10 0 -6 12 4 16 -3 17 -35 1 -23
-4 -48 -11 -56 -10 -13 -9 -14 1 -8 10 6 12 -27 10 -161 -2 -128 -6 -167 -15
-165 -7 1 -13 -3 -13 -9 0 -6 6 -9 14 -6 11 4 14 -6 14 -46 -1 -29 -6 -58 -12
-66 -8 -11 -8 -13 1 -8 8 5 11 -8 10 -50 -2 -40 -6 -57 -15 -55 -6 1 -12 -3
-12 -9 0 -6 6 -9 14 -6 11 4 14 -6 14 -46 -1 -29 -6 -58 -12 -66 -8 -11 -8
-13 1 -8 8 5 11 -8 10 -50 -2 -40 -6 -57 -15 -55 -6 1 -12 -3 -12 -9 0 -6 6
-9 14 -6 11 4 14 -6 14 -46 -1 -29 -6 -58 -12 -66 -8 -12 -8 -13 2 -7 17 10
16 -411 -2 -433 -8 -11 -8 -13 1 -8 8 5 11 -9 10 -50 -2 -42 -6 -57 -15 -55
-8 1 -11 -2 -7 -8 3 -6 10 -8 15 -5 12 8 9 -178 -4 -194 -8 -11 -8 -13 0 -8
20 12 15 -101 -5 -114 -14 -9 -14 -10 0 -6 12 4 16 -3 17 -35 1 -23 -4 -48
-11 -56 -10 -13 -9 -14 1 -8 10 6 12 -27 10 -161 -2 -128 -6 -167 -15 -166 -7
2 -13 -2 -13 -8 0 -6 6 -9 14 -6 11 4 14 -6 14 -46 -1 -29 -6 -58 -12 -66 -8
-11 -8 -13 1 -8 8 5 11 -8 10 -50 -2 -40 -6 -57 -15 -56 -6 2 -12 -2 -12 -8 0
-6 6 -9 14 -6 21 8 18 -92 -3 -118 -15 -18 -15 -19 1 -7 15 12 16 8 16 -40 -1
-29 -6 -59 -12 -67 -8 -11 -8 -13 2 -7 9 5 11 -2 7 -29 -2 -19 0 -33 4 -30 5
2 11 -5 14 -16 3 -12 10 -18 16 -14 7 4 8 -1 4 -12 -3 -10 -3 -15 2 -11 4 4
14 0 22 -10 14 -16 14 -16 9 1 -4 14 -2 16 12 9 9 -5 40 -8 69 -8 40 1 49 -2
41 -12 -7 -8 -7 -12 1 -12 6 0 14 6 17 14 8 20 34 8 28 -12 -3 -9 2 -6 11 8
16 24 16 24 12 3 -3 -13 -1 -23 4 -23 5 0 9 8 9 18 0 16 16 17 200 16 110 0
203 -4 207 -9 4 -4 0 -5 -10 -2 -10 4 -16 3 -12 -2 8 -13 44 -9 39 4 -3 7 13
10 43 9 67 -3 66 -2 59 -19 -3 -8 -1 -15 4 -15 6 0 10 8 10 18 0 15 8 18 50
16 28 0 53 -4 57 -8 4 -4 -5 -5 -20 -2 -15 2 -27 1 -27 -3 0 -5 15 -8 34 -8
19 1 32 6 30 12 -3 7 13 10 43 9 67 -3 66 -2 59 -19 -3 -8 -1 -15 4 -15 6 0
10 8 10 18 0 15 8 18 50 16 28 0 53 -4 57 -8 4 -4 -5 -5 -20 -2 -15 2 -27 1
-27 -4 0 -5 18 -8 40 -6 22 2 42 -2 45 -8 2 -6 2 -1 -1 11 -4 18 -2 22 11 17
9 -4 14 -13 11 -20 -3 -8 -1 -14 4 -14 6 0 10 8 10 18 0 16 14 17 177 15 207
-2 194 -1 190 -10 -1 -5 3 -9 8 -10 6 -1 9 4 8 11 -2 8 12 11 45 11 56 -2 76
-11 68 -32 -3 -8 -1 -11 5 -8 5 4 7 14 4 24 -4 14 2 16 43 15 64 -3 64 -3 57
-14 -3 -5 -1 -10 4 -10 6 0 11 6 11 13 0 12 17 14 62 8 4 -1 5 -9 2 -18 -4
-14 -2 -13 8 2 10 16 23 20 62 19 29 0 51 -5 54 -12 2 -7 8 -12 13 -12 4 0 6
6 3 13 -3 9 6 13 30 12 25 0 32 -3 24 -12 -7 -9 -4 -11 10 -10 12 0 18 6 15
14 -3 9 0 11 10 7 9 -3 14 -13 11 -22 -3 -9 2 -6 11 8 16 24 16 24 12 3 -3
-13 -1 -23 4 -23 5 0 9 8 9 18 0 16 16 17 200 16 110 0 203 -4 207 -9 4 -4 0
-5 -10 -2 -10 4 -16 3 -12 -2 8 -13 44 -9 39 4 -3 7 13 10 43 9 67 -3 66 -2
59 -19 -3 -8 -1 -15 4 -15 6 0 10 8 10 18 0 15 8 18 50 16 28 0 53 -4 57 -8 4
-4 -5 -5 -20 -2 -15 2 -27 1 -27 -3 0 -5 15 -8 34 -8 19 1 32 6 30 12 -3 7 13
10 43 9 67 -3 66 -2 59 -19 -3 -8 -1 -15 4 -15 6 0 10 8 10 18 0 15 8 18 50
16 28 0 53 -4 57 -8 4 -4 -5 -5 -20 -2 -15 2 -27 1 -27 -4 0 -5 18 -8 40 -6
22 2 42 -2 45 -8 2 -6 2 -1 -1 11 -4 18 -2 22 11 17 9 -4 14 -13 11 -20 -3 -8
-1 -14 4 -14 6 0 10 8 10 18 0 16 14 17 177 15 207 -2 194 -1 190 -11 -1 -4 2
-7 8 -7 5 0 9 5 7 10 -2 12 88 12 107 1 7 -5 10 -15 7 -23 -3 -8 -1 -11 5 -8
5 4 7 14 4 24 -4 14 2 16 43 15 64 -3 64 -3 57 -14 -3 -5 -1 -10 4 -10 6 0 11
6 11 13 0 12 17 14 62 8 4 -1 5 -9 2 -19 -4 -13 -2 -12 8 3 10 16 23 20 62 19
29 0 51 -5 54 -12 2 -7 8 -12 13 -12 4 0 6 6 3 13 -3 9 6 13 30 12 25 0 32 -3
24 -12 -7 -9 -4 -11 10 -10 12 0 18 6 15 14 -3 9 0 11 10 7 9 -3 14 -13 11
-22 -3 -9 2 -6 11 8 16 24 16 24 12 3 -3 -13 -1 -23 4 -23 5 0 9 8 9 18 0 15
13 17 134 17 127 0 136 1 159 24 16 14 30 20 39 15 11 -6 11 -5 0 8 -7 9 -9
19 -4 22 5 3 8 21 7 41 -2 21 2 35 9 35 7 0 6 3 -2 9 -16 10 -11 59 9 73 11 8
11 9 -3 5 -13 -5 -16 0 -14 21 1 16 8 26 15 24 7 -1 10 2 6 8 -3 6 -11 8 -16
5 -14 -9 -11 19 4 34 7 8 7 11 1 8 -20 -11 -15 101 5 114 15 10 15 10 -1 5
-26 -8 -22 91 6 124 l21 25 -22 -18 -21 -18 1 58 c2 42 6 57 15 55 8 -1 11 2
7 8 -3 6 -10 8 -15 5 -12 -8 -9 98 4 114 8 11 8 13 -1 8 -8 -5 -11 9 -10 50 2
42 6 57 15 55 8 -1 11 2 7 8 -3 6 -11 8 -16 5 -14 -9 -11 19 4 34 7 8 7 11 1
8 -20 -11 -15 101 5 114 15 10 15 10 -1 5 -26 -8 -22 91 6 124 l21 25 -22 -18
-21 -18 1 58 c2 42 6 57 15 55 8 -1 11 2 7 8 -3 6 -10 8 -15 5 -12 -8 -9 98 4
114 8 11 8 13 -1 8 -8 -5 -11 9 -10 50 2 42 6 57 15 55 8 -1 11 2 7 8 -3 6
-11 8 -16 5 -14 -9 -11 19 4 34 7 8 7 11 1 8 -20 -11 -15 101 5 114 15 10 15
10 -1 5 -26 -8 -22 91 6 124 l21 25 -22 -18 -21 -18 1 58 c2 42 6 57 15 55 8
-1 11 2 7 8 -3 6 -10 8 -15 5 -12 -8 -9 98 4 114 8 11 8 13 -1 8 -8 -5 -11 9
-10 50 2 42 6 57 15 55 8 -1 11 2 7 8 -3 6 -11 8 -16 5 -14 -9 -11 19 4 34 7
8 7 11 1 8 -20 -11 -15 101 5 114 15 10 15 10 -1 5 -26 -8 -22 91 6 124 l21
25 -22 -18 -21 -18 1 58 c2 42 6 57 15 55 8 -1 11 2 7 8 -3 6 -10 8 -15 5 -12
-8 -9 98 4 114 8 11 8 13 -1 8 -8 -5 -11 9 -10 50 2 42 6 57 15 55 8 -1 11 2
7 8 -3 6 -11 8 -16 5 -14 -9 -11 19 4 34 7 8 7 11 1 8 -20 -11 -15 101 5 114
15 10 15 10 -1 5 -26 -8 -22 91 6 124 l21 25 -22 -18 -21 -18 1 58 c2 42 6 57
15 55 8 -1 11 2 7 8 -3 6 -10 8 -15 5 -12 -8 -9 98 4 114 8 11 8 13 -1 8 -8
-5 -11 9 -10 50 2 42 6 57 15 55 8 -1 11 2 7 8 -3 6 -11 8 -16 5 -14 -9 -11
19 4 34 7 8 7 11 1 8 -20 -11 -15 101 5 114 15 10 15 10 -1 5 -26 -8 -22 91 6
124 l21 25 -22 -18 -21 -18 1 58 c2 42 6 57 15 55 8 -1 11 2 7 8 -3 6 -10 8
-15 5 -12 -8 -9 98 4 114 8 11 8 13 -1 8 -8 -5 -11 9 -10 50 2 42 6 57 15 55
8 -1 11 2 7 8 -3 6 -11 8 -16 5 -14 -9 -11 19 4 34 9 11 9 12 0 7 -17 -10 -13
42 4 56 7 6 13 15 13 21 0 6 -6 2 -14 -9 -14 -18 -15 -18 -13 9 1 15 9 33 17
38 13 9 12 10 -2 6 -13 -5 -16 0 -14 21 1 18 7 26 17 24 8 -2 10 0 6 5 -5 4
-13 9 -18 9 -5 1 -11 2 -14 3 -3 0 -1 11 6 22 8 15 8 19 0 15 -6 -4 -11 -4
-11 1 -1 25 -32 45 -77 50 -68 7 -4302 9 -4297 2z"/>
<path d="M319 4678 c-5 -18 -6 -38 -1 -34 7 8 12 36 6 36 -2 0 -4 -1 -5 -2z"/>
<path d="M316 4487 c3 -10 9 -15 12 -12 3 3 0 11 -7 18 -10 9 -11 8 -5 -6z"/>
<path d="M4790 4399 c0 -5 5 -7 10 -4 6 3 10 8 10 11 0 2 -4 4 -10 4 -5 0 -10
-5 -10 -11z"/>
<path d="M316 4353 c-6 -14 -5 -15 5 -6 7 7 10 15 7 18 -3 3 -9 -2 -12 -12z"/>
<path d="M4790 4285 c0 -5 5 -17 10 -25 5 -8 10 -10 10 -5 0 6 -5 17 -10 25
-5 8 -10 11 -10 5z"/>
<path d="M316 4247 c3 -10 9 -15 12 -12 3 3 0 11 -7 18 -10 9 -11 8 -5 -6z"/>
<path d="M4790 4159 c0 -5 5 -7 10 -4 6 3 10 8 10 11 0 2 -4 4 -10 4 -5 0 -10
-5 -10 -11z"/>
<path d="M315 4091 c-3 -5 -2 -12 3 -15 5 -3 9 1 9 9 0 17 -3 19 -12 6z"/>
<path d="M4796 4055 c-9 -26 -7 -32 5 -12 6 10 9 21 6 23 -2 3 -7 -2 -11 -11z"/>
<path d="M315 4011 c-3 -5 -2 -12 3 -15 5 -3 9 1 9 9 0 17 -3 19 -12 6z"/>
<path d="M4796 3935 c-9 -26 -7 -32 5 -12 6 10 9 21 6 23 -2 3 -7 -2 -11 -11z"/>
<path d="M315 3931 c-3 -5 -2 -12 3 -15 5 -3 9 1 9 9 0 17 -3 19 -12 6z"/>
<path d="M310 3825 c0 -5 5 -17 10 -25 5 -8 10 -10 10 -5 0 6 -5 17 -10 25 -5
8 -10 11 -10 5z"/>
<path d="M4790 3759 c0 -5 5 -7 10 -4 6 3 10 8 10 11 0 2 -4 4 -10 4 -5 0 -10
-5 -10 -11z"/>
<path d="M315 3680 c-3 -5 -1 -10 4 -10 6 0 11 5 11 10 0 6 -2 10 -4 10 -3 0
-8 -4 -11 -10z"/>
<path d="M4790 3645 c0 -5 5 -17 10 -25 5 -8 10 -10 10 -5 0 6 -5 17 -10 25
-5 8 -10 11 -10 5z"/>
<path d="M310 3585 c0 -5 5 -17 10 -25 5 -8 10 -10 10 -5 0 6 -5 17 -10 25 -5
8 -10 11 -10 5z"/>
<path d="M4790 3519 c0 -5 5 -7 10 -4 6 3 10 8 10 11 0 2 -4 4 -10 4 -5 0 -10
-5 -10 -11z"/>
<path d="M4796 3415 c-9 -26 -7 -32 5 -12 6 10 9 21 6 23 -2 3 -7 -2 -11 -11z"/>
<path d="M316 3355 c-9 -26 -7 -32 5 -12 6 10 9 21 6 23 -2 3 -7 -2 -11 -11z"/>
<path d="M4796 3295 c-9 -26 -7 -32 5 -12 6 10 9 21 6 23 -2 3 -7 -2 -11 -11z"/>
<path d="M315 3240 c3 -5 8 -10 11 -10 2 0 4 5 4 10 0 6 -5 10 -11 10 -5 0 -7
-4 -4 -10z"/>
<path d="M315 3131 c-3 -5 -2 -12 3 -15 5 -3 9 1 9 9 0 17 -3 19 -12 6z"/>
<path d="M4790 3119 c0 -5 5 -7 10 -4 6 3 10 8 10 11 0 2 -4 4 -10 4 -5 0 -10
-5 -10 -11z"/>
<path d="M315 3051 c-3 -5 -2 -12 3 -15 5 -3 9 1 9 9 0 17 -3 19 -12 6z"/>
<path d="M4790 3005 c0 -5 5 -17 10 -25 5 -8 10 -10 10 -5 0 6 -5 17 -10 25
-5 8 -10 11 -10 5z"/>
<path d="M315 2971 c-3 -5 -2 -12 3 -15 5 -3 9 1 9 9 0 17 -3 19 -12 6z"/>
<path d="M4790 2879 c0 -5 5 -7 10 -4 6 3 10 8 10 11 0 2 -4 4 -10 4 -5 0 -10
-5 -10 -11z"/>
<path d="M316 2807 c3 -10 9 -15 12 -12 3 3 0 11 -7 18 -10 9 -11 8 -5 -6z"/>
<path d="M4796 2775 c-9 -26 -7 -32 5 -12 6 10 9 21 6 23 -2 3 -7 -2 -11 -11z"/>
<path d="M316 2673 c-6 -14 -5 -15 5 -6 7 7 10 15 7 18 -3 3 -9 -2 -12 -12z"/>
<path d="M4796 2655 c-9 -26 -7 -32 5 -12 6 10 9 21 6 23 -2 3 -7 -2 -11 -11z"/>
<path d="M316 2567 c3 -10 9 -15 12 -12 3 3 0 11 -7 18 -10 9 -11 8 -5 -6z"/>
<path d="M4790 2479 c0 -5 5 -7 10 -4 6 3 10 8 10 11 0 2 -4 4 -10 4 -5 0 -10
-5 -10 -11z"/>
<path d="M316 2433 c-6 -14 -5 -15 5 -6 7 7 10 15 7 18 -3 3 -9 -2 -12 -12z"/>
<path d="M4790 2365 c0 -5 5 -17 10 -25 5 -8 10 -10 10 -5 0 6 -5 17 -10 25
-5 8 -10 11 -10 5z"/>
<path d="M316 2327 c3 -10 9 -15 12 -12 3 3 0 11 -7 18 -10 9 -11 8 -5 -6z"/>
<path d="M4790 2239 c0 -5 5 -7 10 -4 6 3 10 8 10 11 0 2 -4 4 -10 4 -5 0 -10
-5 -10 -11z"/>
<path d="M315 2171 c-3 -5 -2 -12 3 -15 5 -3 9 1 9 9 0 17 -3 19 -12 6z"/>
<path d="M4796 2135 c-9 -26 -7 -32 5 -12 6 10 9 21 6 23 -2 3 -7 -2 -11 -11z"/>
<path d="M315 2091 c-3 -5 -2 -12 3 -15 5 -3 9 1 9 9 0 17 -3 19 -12 6z"/>
<path d="M4796 2015 c-9 -26 -7 -32 5 -12 6 10 9 21 6 23 -2 3 -7 -2 -11 -11z"/>
<path d="M315 2011 c-3 -5 -2 -12 3 -15 5 -3 9 1 9 9 0 17 -3 19 -12 6z"/>
<path d="M310 1905 c0 -5 5 -17 10 -25 5 -8 10 -10 10 -5 0 6 -5 17 -10 25 -5
8 -10 11 -10 5z"/>
<path d="M4790 1839 c0 -5 5 -7 10 -4 6 3 10 8 10 11 0 2 -4 4 -10 4 -5 0 -10
-5 -10 -11z"/>
<path d="M315 1760 c-3 -5 -1 -10 4 -10 6 0 11 5 11 10 0 6 -2 10 -4 10 -3 0
-8 -4 -11 -10z"/>
<path d="M4790 1725 c0 -5 5 -17 10 -25 5 -8 10 -10 10 -5 0 6 -5 17 -10 25
-5 8 -10 11 -10 5z"/>
<path d="M310 1665 c0 -5 5 -17 10 -25 5 -8 10 -10 10 -5 0 6 -5 17 -10 25 -5
8 -10 11 -10 5z"/>
<path d="M4790 1599 c0 -5 5 -7 10 -4 6 3 10 8 10 11 0 2 -4 4 -10 4 -5 0 -10
-5 -10 -11z"/>
<path d="M4796 1495 c-9 -26 -7 -32 5 -12 6 10 9 21 6 23 -2 3 -7 -2 -11 -11z"/>
<path d="M316 1435 c-9 -26 -7 -32 5 -12 6 10 9 21 6 23 -2 3 -7 -2 -11 -11z"/>
<path d="M4796 1375 c-9 -26 -7 -32 5 -12 6 10 9 21 6 23 -2 3 -7 -2 -11 -11z"/>
<path d="M315 1320 c3 -5 8 -10 11 -10 2 0 4 5 4 10 0 6 -5 10 -11 10 -5 0 -7
-4 -4 -10z"/>
<path d="M315 1211 c-3 -5 -2 -12 3 -15 5 -3 9 1 9 9 0 17 -3 19 -12 6z"/>
<path d="M4790 1199 c0 -5 5 -7 10 -4 6 3 10 8 10 11 0 2 -4 4 -10 4 -5 0 -10
-5 -10 -11z"/>
<path d="M315 1131 c-3 -5 -2 -12 3 -15 5 -3 9 1 9 9 0 17 -3 19 -12 6z"/>
<path d="M4790 1085 c0 -5 5 -17 10 -25 5 -8 10 -10 10 -5 0 6 -5 17 -10 25
-5 8 -10 11 -10 5z"/>
<path d="M315 1051 c-3 -5 -2 -12 3 -15 5 -3 9 1 9 9 0 17 -3 19 -12 6z"/>
<path d="M4790 959 c0 -5 5 -7 10 -4 6 3 10 8 10 11 0 2 -4 4 -10 4 -5 0 -10
-5 -10 -11z"/>
<path d="M316 887 c3 -10 9 -15 12 -12 3 3 0 11 -7 18 -10 9 -11 8 -5 -6z"/>
<path d="M4796 855 c-9 -26 -7 -32 5 -12 6 10 9 21 6 23 -2 3 -7 -2 -11 -11z"/>
<path d="M316 753 c-6 -14 -5 -15 5 -6 7 7 10 15 7 18 -3 3 -9 -2 -12 -12z"/>
<path d="M4796 735 c-9 -26 -7 -32 5 -12 6 10 9 21 6 23 -2 3 -7 -2 -11 -11z"/>
<path d="M316 647 c3 -10 9 -15 12 -12 3 3 0 11 -7 18 -10 9 -11 8 -5 -6z"/>
<path d="M310 520 c0 -5 5 -10 10 -10 6 0 10 5 10 10 0 6 -4 10 -10 10 -5 0
-10 -4 -10 -10z"/>
<path d="M4749 353 c-13 -16 -12 -17 4 -4 9 7 17 15 17 17 0 8 -8 3 -21 -13z"/>
<path d="M426 318 c3 -4 9 -8 15 -8 5 0 9 4 9 8 0 5 -7 9 -15 9 -8 0 -12 -4
-9 -9z"/>
<path d="M460 320 c0 -5 5 -10 11 -10 5 0 7 5 4 10 -3 6 -8 10 -11 10 -2 0 -4
-4 -4 -10z"/>
<path d="M493 309 c-2 -23 3 -25 10 -4 4 8 3 16 -1 19 -4 3 -9 -4 -9 -15z"/>
<path d="M666 315 c-9 -26 -7 -32 5 -12 6 10 9 21 6 23 -2 3 -7 -2 -11 -11z"/>
<path d="M701 321 c-10 -6 -9 -10 3 -14 8 -3 18 -2 21 3 8 13 -9 20 -24 11z"/>
<path d="M741 303 c-10 -26 -10 -27 4 -9 8 11 15 23 15 28 0 15 -7 8 -19 -19z"/>
<path d="M781 321 c-10 -6 -9 -10 3 -14 8 -3 18 -2 21 3 8 13 -9 20 -24 11z"/>
<path d="M826 315 c-9 -26 -7 -32 5 -12 6 10 9 21 6 23 -2 3 -7 -2 -11 -11z"/>
<path d="M861 321 c-10 -6 -9 -10 3 -14 8 -3 18 -2 21 3 8 13 -9 20 -24 11z"/>
<path d="M901 303 c-10 -26 -10 -27 4 -9 8 11 15 23 15 28 0 15 -7 8 -19 -19z"/>
<path d="M942 321 c-11 -7 -11 -9 0 -14 9 -3 15 1 15 9 0 8 -1 14 -1 14 -1 0
-7 -4 -14 -9z"/>
<path d="M970 321 c0 -6 4 -13 10 -16 6 -3 7 1 4 9 -7 18 -14 21 -14 7z"/>
<path d="M1051 314 c0 -11 3 -14 6 -6 3 7 2 16 -1 19 -3 4 -6 -2 -5 -13z"/>
<path d="M1080 315 c-7 -9 -8 -15 -2 -15 5 0 12 7 16 15 3 8 4 15 2 15 -2 0
-9 -7 -16 -15z"/>
<path d="M1107 311 c-4 -17 -3 -21 5 -13 5 5 8 16 6 23 -3 8 -7 3 -11 -10z"/>
<path d="M1166 322 c-3 -4 4 -9 15 -9 23 -2 25 3 4 10 -8 4 -16 3 -19 -1z"/>
<path d="M1291 314 c0 -11 3 -14 6 -6 3 7 2 16 -1 19 -3 4 -6 -2 -5 -13z"/>
<path d="M1320 315 c-7 -9 -8 -15 -2 -15 5 0 12 7 16 15 3 8 4 15 2 15 -2 0
-9 -7 -16 -15z"/>
<path d="M1347 311 c-4 -17 -3 -21 5 -13 5 5 8 16 6 23 -3 8 -7 3 -11 -10z"/>
<path d="M1406 322 c-3 -4 4 -9 15 -9 23 -2 25 3 4 10 -8 4 -16 3 -19 -1z"/>
<path d="M1584 309 c0 -13 3 -15 13 -7 7 6 13 12 13 13 0 2 -6 5 -13 8 -7 3
-13 -3 -13 -14z"/>
<path d="M1626 315 c-9 -26 -7 -32 5 -12 6 10 9 21 6 23 -2 3 -7 -2 -11 -11z"/>
<path d="M1661 321 c-10 -6 -9 -10 3 -14 8 -3 18 -2 21 3 8 13 -9 20 -24 11z"/>
<path d="M1701 303 c-10 -26 -10 -27 4 -9 8 11 15 23 15 28 0 15 -7 8 -19 -19z"/>
<path d="M1741 321 c-10 -6 -9 -10 3 -14 8 -3 18 -2 21 3 8 13 -9 20 -24 11z"/>
<path d="M1786 315 c-9 -26 -7 -32 5 -12 6 10 9 21 6 23 -2 3 -7 -2 -11 -11z"/>
<path d="M1821 321 c-10 -6 -9 -10 3 -14 8 -3 18 -2 21 3 8 13 -9 20 -24 11z"/>
<path d="M1861 303 c-10 -26 -10 -27 4 -9 8 11 15 23 15 28 0 15 -7 8 -19 -19z"/>
<path d="M1903 322 c-9 -5 -6 -12 10 -21 19 -13 21 -12 10 1 -7 8 -10 18 -6
21 9 9 1 8 -14 -1z"/>
<path d="M2011 314 c0 -11 3 -14 6 -6 3 7 2 16 -1 19 -3 4 -6 -2 -5 -13z"/>
<path d="M2033 315 c0 -8 4 -15 9 -15 4 0 8 4 8 9 0 6 -4 12 -8 15 -5 3 -9 -1
-9 -9z"/>
<path d="M2093 315 c0 -8 4 -15 9 -15 4 0 8 4 8 9 0 6 -4 12 -8 15 -5 3 -9 -1
-9 -9z"/>
<path d="M2125 320 c-2 -3 5 -7 16 -7 10 -1 19 2 19 6 0 9 -29 10 -35 1z"/>
<path d="M2205 320 c-3 -5 -1 -10 4 -10 6 0 11 5 11 10 0 6 -2 10 -4 10 -3 0
-8 -4 -11 -10z"/>
<path d="M2280 315 c-7 -9 -8 -15 -2 -15 5 0 12 7 16 15 3 8 4 15 2 15 -2 0
-9 -7 -16 -15z"/>
<path d="M2333 314 c0 -8 4 -14 9 -14 4 0 8 5 8 11 0 5 6 7 13 3 6 -4 8 -3 4
1 -13 15 -34 14 -34 -1z"/>
<path d="M2410 320 c0 -5 5 -10 11 -10 5 0 7 5 4 10 -3 6 -8 10 -11 10 -2 0
-4 -4 -4 -10z"/>
<path d="M2586 315 c-9 -26 -7 -32 5 -12 6 10 9 21 6 23 -2 3 -7 -2 -11 -11z"/>
<path d="M2621 321 c-10 -6 -9 -10 3 -14 8 -3 18 -2 21 3 8 13 -9 20 -24 11z"/>
<path d="M2661 303 c-10 -26 -10 -27 4 -9 8 11 15 23 15 28 0 15 -7 8 -19 -19z"/>
<path d="M2701 321 c-10 -6 -9 -10 3 -14 8 -3 18 -2 21 3 8 13 -9 20 -24 11z"/>
<path d="M2746 315 c-9 -26 -7 -32 5 -12 6 10 9 21 6 23 -2 3 -7 -2 -11 -11z"/>
<path d="M2781 321 c-10 -6 -9 -10 3 -14 8 -3 18 -2 21 3 8 13 -9 20 -24 11z"/>
<path d="M2821 303 c-10 -26 -10 -27 4 -9 8 11 15 23 15 28 0 15 -7 8 -19 -19z"/>
<path d="M2862 321 c-11 -7 -11 -9 0 -14 9 -3 15 1 15 9 0 8 -1 14 -1 14 -1 0
-7 -4 -14 -9z"/>
<path d="M2890 321 c0 -6 4 -13 10 -16 6 -3 7 1 4 9 -7 18 -14 21 -14 7z"/>
<path d="M2971 314 c0 -11 3 -14 6 -6 3 7 2 16 -1 19 -3 4 -6 -2 -5 -13z"/>
<path d="M3000 315 c-7 -9 -8 -15 -2 -15 5 0 12 7 16 15 3 8 4 15 2 15 -2 0
-9 -7 -16 -15z"/>
<path d="M3027 311 c-4 -17 -3 -21 5 -13 5 5 8 16 6 23 -3 8 -7 3 -11 -10z"/>
<path d="M3086 322 c-3 -4 4 -9 15 -9 23 -2 25 3 4 10 -8 4 -16 3 -19 -1z"/>
<path d="M3211 314 c0 -11 3 -14 6 -6 3 7 2 16 -1 19 -3 4 -6 -2 -5 -13z"/>
<path d="M3240 315 c-7 -9 -8 -15 -2 -15 5 0 12 7 16 15 3 8 4 15 2 15 -2 0
-9 -7 -16 -15z"/>
<path d="M3267 311 c-4 -17 -3 -21 5 -13 5 5 8 16 6 23 -3 8 -7 3 -11 -10z"/>
<path d="M3326 322 c-3 -4 4 -9 15 -9 23 -2 25 3 4 10 -8 4 -16 3 -19 -1z"/>
<path d="M3504 309 c0 -13 3 -15 13 -7 7 6 13 12 13 13 0 2 -6 5 -13 8 -7 3
-13 -3 -13 -14z"/>
<path d="M3546 315 c-9 -26 -7 -32 5 -12 6 10 9 21 6 23 -2 3 -7 -2 -11 -11z"/>
<path d="M3581 321 c-10 -6 -9 -10 3 -14 8 -3 18 -2 21 3 8 13 -9 20 -24 11z"/>
<path d="M3621 303 c-10 -26 -10 -27 4 -9 8 11 15 23 15 28 0 15 -7 8 -19 -19z"/>
<path d="M3661 321 c-10 -6 -9 -10 3 -14 8 -3 18 -2 21 3 8 13 -9 20 -24 11z"/>
<path d="M3706 315 c-9 -26 -7 -32 5 -12 6 10 9 21 6 23 -2 3 -7 -2 -11 -11z"/>
<path d="M3741 321 c-10 -6 -9 -10 3 -14 8 -3 18 -2 21 3 8 13 -9 20 -24 11z"/>
<path d="M3781 303 c-10 -26 -10 -27 4 -9 8 11 15 23 15 28 0 15 -7 8 -19 -19z"/>
<path d="M3823 322 c-9 -5 -6 -12 10 -21 19 -13 21 -12 10 1 -7 8 -10 18 -6
21 9 9 1 8 -14 -1z"/>
<path d="M3931 314 c0 -11 3 -14 6 -6 3 7 2 16 -1 19 -3 4 -6 -2 -5 -13z"/>
<path d="M3953 315 c0 -8 4 -15 9 -15 4 0 8 4 8 9 0 6 -4 12 -8 15 -5 3 -9 -1
-9 -9z"/>
<path d="M4013 315 c0 -8 4 -15 9 -15 4 0 8 4 8 9 0 6 -4 12 -8 15 -5 3 -9 -1
-9 -9z"/>
<path d="M4045 320 c-2 -3 5 -7 16 -7 10 -1 19 2 19 6 0 9 -29 10 -35 1z"/>
<path d="M4125 320 c-3 -5 -1 -10 4 -10 6 0 11 5 11 10 0 6 -2 10 -4 10 -3 0
-8 -4 -11 -10z"/>
<path d="M4200 315 c-7 -9 -8 -15 -2 -15 5 0 12 7 16 15 3 8 4 15 2 15 -2 0
-9 -7 -16 -15z"/>
<path d="M4253 314 c0 -8 4 -14 9 -14 4 0 8 5 8 11 0 5 6 7 13 3 6 -4 8 -3 4
1 -13 15 -34 14 -34 -1z"/>
<path d="M4330 320 c0 -5 5 -10 11 -10 5 0 7 5 4 10 -3 6 -8 10 -11 10 -2 0
-4 -4 -4 -10z"/>
<path d="M4541 321 c-10 -6 -9 -10 3 -14 8 -3 18 -2 21 3 8 13 -9 20 -24 11z"/>
<path d="M4586 315 c-9 -26 -7 -32 5 -12 6 10 9 21 6 23 -2 3 -7 -2 -11 -11z"/>
<path d="M4621 321 c-10 -6 -9 -10 3 -14 8 -3 18 -2 21 3 8 13 -9 20 -24 11z"/>
<path d="M4672 317 c-8 -10 -6 -13 11 -14 12 0 16 1 9 4 -6 3 -10 9 -6 14 8
14 -2 11 -14 -4z"/>
<path d="M626 304 c-5 -14 -4 -15 9 -4 17 14 19 20 6 20 -5 0 -12 -7 -15 -16z"/>
<path d="M2306 303 c-6 -14 -5 -15 5 -6 7 7 10 15 7 18 -3 3 -9 -2 -12 -12z"/>
<path d="M2546 304 c-5 -14 -4 -15 9 -4 17 14 19 20 6 20 -5 0 -12 -7 -15 -16z"/>
<path d="M4226 303 c-6 -14 -5 -15 5 -6 7 7 10 15 7 18 -3 3 -9 -2 -12 -12z"/>
<path d="M4466 304 c-5 -13 -4 -14 7 -6 10 9 17 8 27 -1 12 -10 12 -9 1 6 -17
21 -27 22 -35 1z"/>
<path d="M4730 300 c0 -5 5 -10 11 -10 5 0 7 5 4 10 -3 6 -8 10 -11 10 -2 0
-4 -4 -4 -10z"/>
<path d="M955 281 c-3 -5 -2 -12 3 -15 5 -3 9 1 9 9 0 17 -3 19 -12 6z"/>
<path d="M2875 281 c-3 -5 -2 -12 3 -15 5 -3 9 1 9 9 0 17 -3 19 -12 6z"/>
</g>
</svg>
