<?xml version="1.0" standalone="no"?>
<!DOCTYPE svg PUBLIC "-//W3C//DTD SVG 20010904//EN"
 "http://www.w3.org/TR/2001/REC-SVG-20010904/DTD/svg10.dtd">
<svg version="1.0" xmlns="http://www.w3.org/2000/svg"
 width="512.000000pt" height="512.000000pt" viewBox="0 0 512.000000 512.000000"
 preserveAspectRatio="xMidYMid meet">
<metadata>
Created by potrace 1.11, written by Peter Selinger 2001-2013
</metadata>
<g transform="translate(0.000000,512.000000) scale(0.100000,-0.100000)"
fill="#000000" stroke="none">
<path d="M301 4856 c-53 -30 -50 107 -51 -2293 0 -1710 3 -2238 12 -2258 27
-59 -129 -55 2298 -55 2427 0 2271 -4 2298 55 9 20 12 548 12 2256 0 2426 4
2270 -55 2297 -40 19 -4480 17 -4514 -2z m2159 -860 c365 -55 610 -198 724
-423 40 -80 56 -156 56 -268 0 -117 -18 -202 -60 -287 -104 -208 -305 -358
-594 -442 -61 -18 -76 -26 -61 -31 11 -4 54 -23 95 -43 94 -44 193 -140 236
-227 28 -57 29 -66 29 -195 0 -112 -4 -147 -22 -205 -83 -261 -337 -457 -713
-549 -193 -47 -306 -59 -595 -62 l-270 -3 -6 -31 c-9 -43 -63 -96 -118 -117
-65 -25 -223 -25 -269 0 -44 24 -71 85 -72 158 -1 210 95 913 181 1327 37 180
135 573 153 617 33 78 114 115 250 115 103 0 148 -13 180 -51 33 -39 33 -65
-5 -185 -104 -336 -243 -1058 -265 -1380 l-7 -92 139 -7 c346 -19 650 41 806
158 188 141 220 362 75 507 -76 77 -177 113 -364 130 -59 6 -118 15 -131 20
-71 30 -65 222 9 284 37 32 43 33 199 47 279 24 466 90 595 211 210 196 165
473 -98 592 -148 68 -320 92 -592 83 -387 -13 -708 -95 -1061 -273 -156 -78
-195 -94 -233 -94 -82 0 -121 48 -121 150 0 108 40 167 165 245 262 164 691
291 1125 334 135 14 514 5 640 -13z m1513 -1276 c148 -55 235 -231 207 -414
-20 -132 -81 -225 -162 -246 -81 -22 -169 16 -182 80 -3 17 3 66 14 113 30
126 11 177 -68 177 -100 0 -187 -101 -243 -280 -20 -63 -24 -96 -23 -205 0
-112 3 -138 23 -189 46 -115 132 -175 266 -184 173 -11 343 77 543 281 108
110 136 126 186 107 42 -15 59 -69 54 -165 -6 -103 -28 -147 -126 -247 -215
-221 -524 -341 -796 -309 -270 32 -454 175 -533 416 -24 72 -26 95 -27 235 0
191 21 287 94 435 85 172 193 283 345 357 44 21 110 45 145 53 85 19 208 13
283 -15z"/>
</g>
</svg>
